<svg width="2991" height="3007" viewBox="0 0 2991 3007" fill="none" xmlns="http://www.w3.org/2000/svg">
<path fill-rule="evenodd" clip-rule="evenodd" d="M1499.73 1.03644C1502.74 1.33771 1507.96 2.14109 1511.28 2.94447C1514.59 3.74786 1520.21 5.85674 1523.83 7.66436C1528.15 9.67282 1532.77 13.288 1537.49 17.9075C1541.8 22.1253 1545.62 27.1464 1547.23 30.4604C1548.93 33.9752 1550.44 39.7997 1551.34 46.5281C1552.25 52.3526 1553.35 63.9013 1553.95 72.136C1554.46 80.4711 1554.96 99.6519 1554.96 114.816C1554.96 129.98 1554.46 148.558 1553.95 155.989C1553.35 163.421 1552.25 173.664 1551.44 178.584C1550.54 183.505 1548.73 191.439 1547.23 196.158C1545.72 200.878 1542.71 207.305 1540.4 210.72C1538.19 214.034 1534.17 218.452 1531.36 220.461C1528.65 222.57 1523.43 225.281 1519.81 226.486C1515.09 227.993 1509.77 228.696 1500.23 229.097C1492.4 229.398 1484.36 229.097 1480.14 228.394C1476.33 227.691 1470.91 226.185 1468.09 224.879C1465.38 223.674 1461.37 221.365 1459.16 219.758C1457.05 218.051 1453.63 214.235 1451.62 211.222C1449.62 208.209 1446.7 202.083 1445.3 197.665C1443.79 193.246 1442.18 187.12 1441.58 184.108C1440.98 181.095 1439.98 175.17 1439.47 171.053C1438.87 166.935 1437.97 152.876 1437.36 139.922C1436.76 124.155 1436.76 107.384 1437.46 89.2079C1437.97 74.3453 1439.17 57.7755 1439.98 52.5535C1440.78 47.3315 1442.18 40.5027 1443.09 37.49C1443.99 34.4773 1445.8 29.8579 1447.11 27.1464C1448.41 24.5354 1451.22 20.6189 1453.33 18.3092C1455.34 15.9995 1459.56 12.5851 1462.57 10.5766C1465.58 8.56817 1471.01 5.85674 1474.62 4.55124C1478.24 3.24574 1484.06 1.83982 1487.68 1.43813C1491.29 0.936013 1496.71 0.83559 1499.73 1.03644V1.03644ZM1495.21 566.217C1505.75 566.418 1519.71 567.322 1526.34 568.226C1532.97 569.029 1544.01 570.937 1550.94 572.343C1557.87 573.749 1569.12 576.461 1576.05 578.369C1582.98 580.377 1595.13 584.394 1603.16 587.507C1611.2 590.52 1624.25 596.344 1632.28 600.361C1640.32 604.278 1650.46 609.701 1654.88 612.412C1659.3 615.023 1666.73 619.843 1671.45 623.057C1676.17 626.27 1684.91 632.798 1691.03 637.719C1697.06 642.539 1706.8 651.276 1712.62 657.1C1718.45 662.925 1727.28 672.666 1732.2 678.691C1737.23 684.817 1743.75 693.353 1746.97 697.772C1750.08 702.19 1755.8 711.228 1759.72 717.856C1763.74 724.484 1769.36 734.928 1772.27 740.954C1775.29 747.079 1779.2 755.615 1780.91 760.034C1782.72 764.453 1785.93 773.29 1788.14 779.616C1790.25 785.943 1793.56 797.492 1795.57 805.224C1797.48 812.957 1799.99 825.61 1801.19 833.343C1803.2 845.494 1803.5 851.318 1803.5 876.525C1803.5 902.836 1803.2 907.656 1800.69 926.736C1799.09 938.385 1797.98 949.532 1798.48 955.256L1813.55 949.432C1821.88 946.218 1842.87 937.682 1860.24 930.452C1877.62 923.221 1913.77 908.058 1940.58 896.609C1967.39 885.161 2004.45 869.495 2022.93 861.763C2041.41 854.03 2071.43 841.678 2089.71 834.347C2107.99 827.016 2128.47 819.083 2135.4 816.673C2147.55 812.555 2148.36 812.354 2160 812.455C2167.34 812.455 2175.17 813.158 2180.09 814.262C2184.51 815.166 2191.74 817.074 2196.16 818.48C2200.57 819.886 2207.81 822.698 2212.22 824.706C2216.64 826.715 2224.07 830.933 2228.79 834.046C2233.51 837.058 2242.95 844.49 2262.44 861.562L2282.02 854.13C2292.76 850.113 2305.72 845.394 2310.64 843.787C2315.56 842.18 2324.6 839.77 2330.72 838.464C2336.85 837.058 2346.09 835.452 2351.31 834.648C2356.73 833.945 2369.28 833.443 2380.43 833.443C2395.8 833.544 2402.62 834.046 2412.06 835.753C2418.69 836.958 2429.34 839.669 2435.66 841.778C2441.99 843.887 2450.83 847.402 2455.25 849.712C2459.66 851.921 2468 856.842 2473.82 860.758C2479.65 864.675 2488.08 871.202 2492.7 875.219C2497.22 879.236 2504.15 886.165 2508.07 890.584C2511.99 895.003 2518.31 903.338 2522.23 909.162C2526.14 914.987 2531.97 925.129 2535.18 931.757C2538.3 938.385 2542.51 948.528 2544.42 954.353C2546.43 960.177 2548.94 969.918 2550.04 975.943C2551.25 982.069 2552.66 992.413 2553.26 999.041C2553.86 1007.07 2553.86 1015.31 2553.26 1023.64C2552.66 1030.57 2551.45 1040.01 2550.55 1044.73C2549.74 1049.45 2547.63 1057.39 2546.13 1062.31C2544.52 1067.33 2540.91 1075.86 2537.99 1081.39C2535.18 1086.91 2530.36 1095.25 2527.35 1099.97C2524.24 1104.69 2519.22 1111.92 2516.1 1116.03C2512.99 1120.15 2505.76 1128.49 2499.93 1134.51C2494.11 1140.54 2485.98 1147.97 2481.86 1151.08C2477.74 1154.19 2467.8 1159.92 2459.77 1163.94C2451.73 1167.85 2439.58 1173.27 2432.65 1176.09C2425.72 1178.9 2411.26 1184.12 2400.52 1187.84C2389.77 1191.55 2375.71 1196.57 2369.39 1199.08C2363.06 1201.59 2354.92 1205.11 2351.31 1206.92C2347.69 1208.72 2343.58 1211.23 2342.17 1212.54C2339.66 1214.85 2339.56 1215.15 2340.46 1221.48C2340.97 1225.09 2342.97 1237.75 2344.88 1249.6C2346.79 1261.45 2349.1 1275.91 2349.9 1281.73C2350.71 1287.56 2351.61 1300.91 2351.91 1311.36C2352.51 1329.63 2352.41 1330.84 2349.9 1340.48C2348.5 1346 2345.08 1355.04 2342.27 1360.56C2339.56 1366.09 2334.44 1374.42 2330.92 1379.14C2327.41 1383.86 2320.88 1391.09 2316.46 1395.21C2312.04 1399.33 2305.11 1405.05 2301 1407.86C2296.88 1410.78 2289.45 1415.09 2284.53 1417.6C2279.61 1420.11 2271.67 1423.33 2266.95 1424.83C2262.23 1426.24 2236.02 1431.96 2208.71 1437.39C2181.39 1442.91 2139.62 1450.94 2115.82 1455.46C2092.02 1459.88 2059.98 1466.11 2044.52 1469.12C2029.05 1472.13 2003.04 1477.36 1986.78 1480.67C1970.51 1483.98 1949.22 1488.5 1939.58 1490.71C1929.94 1492.82 1919.49 1495.33 1910.96 1497.84L1911.76 1504.47C1912.16 1508.19 1914.17 1522.95 1916.08 1537.31C1917.99 1551.67 1922.51 1583.1 1926.12 1607.1C1929.74 1631.1 1935.56 1669.57 1939.18 1692.46C1942.79 1715.36 1948.41 1750.61 1951.63 1770.79C1954.94 1790.98 1959.66 1819.4 1962.17 1834.06C1964.68 1848.72 1968.2 1867.9 1970.01 1876.64C1972.72 1889.89 1973.52 1892.71 1975.23 1893.41C1976.33 1893.91 1985.17 1895.12 1994.81 1896.32C2004.45 1897.43 2019.21 1899.03 2027.45 1899.84C2035.78 1900.74 2049.04 1902.35 2057.07 1903.45C2065.11 1904.56 2078.46 1906.87 2086.7 1908.57C2095.03 1910.18 2108.09 1913.09 2115.82 1915C2123.55 1916.91 2133.09 1919.42 2136.91 1920.52C2140.72 1921.63 2151.67 1925.04 2161.01 1928.15C2170.35 1931.17 2186.42 1936.99 2196.66 1941.01C2206.9 1945.03 2222.67 1951.85 2231.81 1956.07C2240.94 1960.39 2254 1966.72 2260.93 1970.13C2267.86 1973.55 2278.7 1978.67 2285.03 1981.48C2291.36 1984.19 2302.3 1988.51 2309.43 1991.12C2316.46 1993.63 2327.01 1997.05 2333.03 1998.75C2338.96 2000.36 2348.3 2002.57 2353.82 2003.67C2359.34 2004.78 2370.89 2006.59 2379.43 2007.69C2387.96 2008.79 2403.13 2010.2 2413.07 2010.9C2423.01 2011.61 2446.71 2012.21 2465.79 2012.21C2486.98 2012.21 2504.96 2011.81 2511.98 2011C2518.31 2010.3 2529.16 2008.79 2536.09 2007.69C2543.02 2006.59 2554.26 2004.38 2561.19 2002.67C2568.12 2000.96 2581.88 1996.94 2591.82 1993.63C2601.76 1990.32 2618.03 1984.29 2627.97 1980.17C2637.91 1976.16 2658.9 1967.12 2674.67 1960.09C2690.44 1953.06 2712.33 1943.72 2723.37 1939.3C2734.42 1934.88 2753.4 1927.95 2765.55 1923.84C2777.7 1919.82 2794.87 1914.7 2803.71 1912.49C2812.55 1910.28 2825 1907.57 2831.33 1906.46C2837.65 1905.36 2848.5 1903.95 2855.43 1903.25C2862.56 1902.65 2873.41 1902.35 2880.54 1902.65C2887.46 1902.95 2897.71 1904.15 2903.43 1905.26C2909.06 1906.46 2917.39 1908.77 2922.01 1910.38C2926.53 1912.09 2933.16 1915.1 2936.77 1917.01C2940.39 1919.02 2945.81 1922.43 2948.82 1924.74C2951.84 1927.05 2956.76 1931.17 2959.77 1933.98C2962.68 1936.69 2967.4 1941.91 2970.31 1945.53C2973.12 1949.04 2978.95 1957.18 2991 1975.15L2990.9 2935.2L2980.05 2948.75C2974.03 2956.19 2965.39 2965.93 2960.67 2970.35C2956.05 2974.76 2948.22 2981.19 2943.3 2984.51C2938.28 2987.92 2930.85 2992.34 2926.73 2994.45C2922.61 2996.56 2916.69 2999.07 2913.67 3000.17C2910.66 3001.18 2903.63 3002.68 2898.11 3003.49C2892.59 3004.29 2873.81 3005.39 2856.43 3005.9C2837.45 3006.5 2276.9 3006.9 88.7917 3007L74.0296 2999.57C65.795 2995.45 55.6523 2989.63 51.4346 2986.71C47.2168 2983.8 39.7856 2977.98 34.9653 2973.86C29.4421 2969.14 21.5087 2960.6 1.82588 2936.2L1.0225 2850.84C0.520391 2803.94 0.118701 2598.98 0.0182787 2395.42C-0.0821438 2101.99 0.219124 2021.75 1.22335 2007.79C1.9263 1998.15 3.33222 1986.2 4.33644 1981.18C5.64193 1974.55 7.65038 1969.23 11.7677 1961.09C14.8808 1955.07 20.404 1946.33 24.0192 1941.81C27.6344 1937.19 33.5594 1930.97 37.3754 1927.85C41.0911 1924.74 47.5181 1920.32 51.6354 1917.91C55.7527 1915.5 63.8869 1911.89 69.7114 1909.98C75.5359 1908.07 84.574 1905.76 89.7959 1904.96C95.7209 1903.95 105.864 1903.35 116.709 1903.35C126.551 1903.35 139.304 1904.05 146.233 1904.96C153.062 1905.76 165.816 1908.07 174.653 1909.88C183.49 1911.79 197.047 1915.2 204.78 1917.41C212.512 1919.72 224.262 1923.33 230.889 1925.54C237.517 1927.85 249.468 1932.17 257.501 1935.18C265.535 1938.2 278.891 1943.52 287.126 1947.03C295.461 1950.55 309.42 1956.57 318.257 1960.59C327.094 1964.51 341.555 1970.83 350.392 1974.65C359.229 1978.37 373.891 1984.19 383.029 1987.61C392.168 1991.02 406.629 1995.94 415.165 1998.35C423.701 2000.86 437.258 2004.18 445.291 2005.78C453.325 2007.39 466.179 2009.4 473.912 2010.2C481.644 2011.1 497.21 2012.01 508.557 2012.41C520.106 2012.81 540.994 2012.51 556.258 2011.91C571.221 2011.2 590.402 2010.1 598.938 2009.3C607.474 2008.39 620.127 2006.79 627.056 2005.68C633.985 2004.48 644.831 2002.27 651.157 2000.76C657.484 1999.15 668.33 1995.94 675.259 1993.63C682.188 1991.32 693.736 1987 700.866 1983.99C707.996 1980.98 726.374 1972.44 741.538 1965.11C756.701 1957.78 772.267 1950.35 776.183 1948.74C780.1 1947.03 788.836 1943.42 795.766 1940.71C802.695 1938 814.444 1933.58 821.875 1930.97C829.307 1928.46 843.768 1923.94 854.011 1920.92C864.254 1918.01 879.819 1914 888.656 1911.99C897.494 1910.08 911.251 1907.27 919.285 1905.86C927.319 1904.46 950.115 1901.54 969.999 1899.33C989.882 1897.12 1008.86 1894.81 1012.18 1894.31C1015.49 1893.71 1018.3 1893.21 1018.5 1893.01C1018.6 1892.91 1019.21 1891 1019.71 1888.79C1020.21 1886.58 1022.52 1875.03 1024.73 1863.18C1026.84 1851.33 1031.36 1825.32 1034.67 1805.44C1037.98 1785.55 1043.21 1753.72 1046.22 1734.64C1049.23 1715.56 1054.96 1679.41 1058.77 1654.3C1062.69 1629.2 1068.31 1591.44 1071.32 1570.45C1074.34 1549.46 1077.55 1526.16 1078.35 1518.73C1079.26 1511.3 1080.16 1503.47 1080.97 1497.64L1075.74 1496.14C1072.83 1495.33 1057.97 1491.82 1042.8 1488.5C1027.64 1485.19 992.794 1477.96 965.48 1472.54C938.165 1467.01 894.581 1458.48 868.572 1453.46C842.562 1448.33 810.729 1442.01 797.774 1439.3C784.82 1436.58 767.145 1432.77 758.609 1430.76C750.073 1428.75 736.717 1425.34 728.985 1423.13C721.252 1420.92 710.206 1417.1 704.381 1414.79C698.557 1412.48 691.125 1408.97 687.812 1407.06C684.498 1405.05 678.874 1400.83 675.359 1397.62C671.844 1394.31 666.622 1388.08 663.61 1383.66C660.697 1379.24 655.174 1369.1 651.258 1361.07C647.341 1353.03 643.124 1342.89 641.918 1338.47C640.01 1331.44 639.709 1328.03 639.709 1311.36C639.709 1296.59 640.211 1289.16 641.918 1278.72C643.124 1271.29 645.433 1257.23 647.14 1247.59C648.848 1237.95 650.555 1225.09 651.459 1207.92L640.01 1203.8C633.684 1201.49 616.813 1195.87 602.452 1191.35C588.092 1186.83 570.418 1181.01 563.288 1178.3C556.158 1175.69 546.417 1171.97 541.697 1169.96C536.977 1168.05 529.345 1164.24 524.625 1161.42C519.905 1158.71 511.972 1153.29 507.051 1149.47C502.13 1145.56 494.097 1138.43 489.377 1133.51C484.657 1128.59 478.129 1120.95 474.816 1116.54C471.502 1112.12 466.48 1104.49 463.669 1099.46C460.857 1094.54 456.94 1086.81 454.932 1082.39C453.024 1077.97 450.011 1070.04 448.304 1064.82C446.597 1059.6 443.986 1049.65 442.479 1042.72C440.069 1031.28 439.869 1028.16 439.768 1007.58C439.768 987.793 440.069 983.576 442.078 973.433C443.383 967.106 445.793 957.566 447.501 952.344C449.107 947.122 453.626 936.477 457.442 928.745C461.258 921.012 467.384 910.367 471.1 905.145C474.916 899.923 482.448 891.086 487.971 885.563C493.494 879.939 502.934 871.704 509.06 867.085C516.39 861.662 525.228 856.34 535.169 851.419C544.308 846.799 554.752 842.582 561.781 840.473C568.108 838.565 577.648 836.355 582.87 835.351C588.092 834.447 599.139 833.443 607.474 833.142C616.311 832.841 627.257 833.041 634.086 833.744C640.412 834.447 649.952 835.853 655.174 836.858C660.396 837.962 668.731 839.971 673.752 841.377C678.773 842.883 692.933 847.804 705.385 852.423C717.838 857.143 728.583 860.959 729.186 860.959C729.889 860.959 736.014 856.038 742.743 850.113C749.571 844.188 757.806 837.46 761.12 835.251C764.434 832.941 771.162 829.025 776.183 826.614C781.204 824.104 789.238 820.689 794.259 818.982C799.28 817.375 807.113 815.166 811.833 814.162C817.055 813.158 824.788 812.455 831.918 812.455C839.65 812.455 845.274 812.957 848.99 814.062C852.002 814.965 865.76 820.187 879.618 825.61C893.376 831.133 917.377 840.874 932.842 847.402C948.307 853.829 1000.02 875.922 1047.83 896.308C1095.63 916.794 1143.93 937.281 1155.28 942.001C1166.63 946.72 1178.68 951.641 1188.42 955.357L1187.81 948.126C1187.51 944.109 1186.61 934.067 1185.81 925.732C1184.9 917.497 1183.9 903.94 1183.3 895.605C1182.79 885.864 1182.79 874.115 1183.4 862.465C1184 852.524 1185.3 838.263 1186.41 830.832C1187.41 823.401 1189.52 811.852 1190.93 805.224C1192.43 798.596 1195.05 788.855 1196.65 783.633C1198.36 778.411 1201.37 769.775 1203.48 764.553C1205.59 759.331 1209.1 751.197 1211.21 746.477C1213.42 741.757 1218.24 732.518 1222.06 725.89C1225.77 719.262 1231.9 709.32 1235.72 703.797C1239.43 698.274 1246.36 689.035 1250.98 683.21C1255.6 677.386 1263.93 667.946 1269.36 662.222C1274.78 656.498 1284.32 647.46 1290.35 642.238C1296.37 637.016 1305.91 629.484 1311.43 625.467C1316.96 621.45 1326.3 615.123 1332.32 611.508C1338.25 607.893 1348.59 602.068 1355.32 598.754C1362.15 595.34 1372.39 590.62 1378.22 588.31C1384.04 585.9 1393.78 582.386 1399.81 580.377C1405.83 578.469 1415.37 575.758 1420.9 574.352C1426.42 572.946 1436.36 570.937 1442.99 569.732C1449.62 568.628 1459.76 567.322 1465.58 566.82C1471.41 566.217 1484.66 566.017 1495.21 566.217V566.217ZM1455.04 688.332C1449.01 689.437 1438.97 691.947 1432.95 693.956C1426.92 695.864 1416.48 700.081 1409.85 703.295C1403.22 706.408 1393.08 712.233 1387.25 716.149C1381.43 720.066 1372.39 726.995 1367.17 731.614C1361.95 736.234 1353.81 744.569 1349.19 750.092C1344.57 755.515 1337.34 765.256 1333.13 771.583C1328.91 778.01 1322.88 788.353 1319.77 794.68C1316.66 801.007 1312.24 811.651 1310.03 818.279C1307.82 824.907 1305.11 834.849 1304 840.372C1302.9 845.896 1301.39 856.34 1300.79 863.47C1299.99 872.909 1299.99 880.14 1300.79 889.58C1301.29 896.81 1302.8 907.656 1303.9 913.681C1305.11 919.807 1307.92 930.151 1310.03 936.778C1312.24 943.406 1316.76 954.252 1319.97 960.88C1323.18 967.508 1328.91 977.45 1332.52 982.973C1336.24 988.496 1342.06 996.43 1345.58 1000.55C1348.99 1004.66 1356.52 1012.6 1362.35 1018.12C1368.17 1023.64 1377.11 1031.18 1382.33 1034.89C1387.55 1038.61 1396.79 1044.43 1402.82 1047.95C1408.84 1051.36 1417.28 1055.58 1421.4 1057.39C1425.51 1059.09 1432.14 1061.3 1435.96 1062.21C1440.48 1063.31 1451.83 1064.32 1468.09 1065.02C1486.57 1065.82 1499.83 1065.82 1518.31 1065.02C1537.49 1064.22 1545.32 1063.41 1551.44 1061.91C1555.86 1060.7 1564.7 1057.29 1571.03 1054.17C1577.35 1051.16 1585.99 1046.54 1590.11 1044.03C1594.22 1041.42 1601.96 1036.2 1607.18 1032.28C1612.4 1028.36 1621.74 1020.23 1627.87 1014.1C1633.99 1008.08 1642.33 998.539 1646.44 993.015C1650.56 987.492 1656.49 978.454 1659.6 972.931C1662.81 967.408 1667.13 958.872 1669.24 953.85C1671.45 948.93 1674.66 940.293 1676.37 934.77C1678.08 929.247 1680.39 920.41 1681.49 915.188C1682.5 909.966 1683.9 900.225 1684.6 893.597C1685.31 886.567 1685.51 875.922 1685.21 867.989C1684.81 860.557 1683.9 850.113 1683 844.891C1682.09 839.669 1680.09 830.129 1678.38 823.803C1676.77 817.476 1673.96 808.639 1672.15 804.22C1670.34 799.801 1666.43 792.169 1663.52 787.148C1660.5 782.227 1655.08 774.093 1651.36 769.072C1647.65 764.151 1640.82 755.716 1636.2 750.594C1631.58 745.372 1623.45 737.238 1618.23 732.618C1613 727.899 1604.97 721.371 1600.35 717.957C1595.83 714.643 1587.9 709.421 1582.78 706.508C1577.65 703.697 1569.72 699.881 1565 698.173C1560.28 696.466 1550.64 693.554 1543.41 691.746C1536.18 689.939 1524.83 687.729 1518 686.826C1510.47 685.821 1499.43 685.319 1489.38 685.42C1480.45 685.42 1471.51 685.721 1469.6 685.922C1467.69 686.123 1461.06 687.227 1455.04 688.332V688.332ZM2354.12 954.051C2349.6 955.457 2341.37 958.369 2336.04 960.478C2330.62 962.688 2321.99 966.403 2316.96 968.813C2311.84 971.324 2304.81 975.14 2301.4 977.349C2295.27 981.366 2295.07 981.567 2295.07 985.785C2295.07 988.095 2295.78 994.723 2296.68 1000.55C2297.48 1006.37 2299.59 1017.92 2301.2 1026.16C2302.91 1034.49 2306.02 1048.05 2308.13 1056.28C2310.24 1064.62 2313.35 1075.26 2315.06 1080.18C2316.76 1085 2318.77 1089.12 2319.48 1089.42C2320.08 1089.72 2332.93 1085.81 2347.79 1080.79C2362.66 1075.76 2380.33 1069.24 2386.96 1066.42C2393.59 1063.51 2402.83 1058.99 2407.55 1056.28C2412.17 1053.47 2418.09 1049.25 2420.7 1046.74C2423.21 1044.23 2426.73 1039.41 2428.43 1036C2430.24 1032.48 2432.35 1026.86 2433.15 1023.44C2433.96 1019.93 2434.66 1013.3 2434.66 1008.58C2434.66 1003.86 2433.96 997.334 2433.05 994.02C2432.15 990.706 2430.44 985.785 2429.14 982.973C2427.83 980.262 2424.82 975.542 2422.41 972.529C2420 969.516 2414.88 964.897 2411.06 962.186C2407.24 959.474 2400.82 955.959 2397 954.353C2393.19 952.746 2387.06 951.039 2383.44 950.436C2379.83 949.834 2375.31 949.432 2373.4 949.432C2371.49 949.532 2368.28 949.934 2366.17 950.536C2364.16 951.039 2358.74 952.645 2354.12 954.051V954.051ZM594.72 954.453C591.808 955.558 586.284 958.671 582.468 961.181C578.652 963.792 573.531 968.211 571.121 970.922C568.71 973.734 565.296 979.157 563.388 982.973C561.48 986.89 559.572 992.011 558.97 994.522C558.367 997.032 557.564 1001.95 557.162 1005.57C556.76 1009.28 557.061 1015.11 557.664 1019.13C558.267 1023.04 560.175 1029.07 561.882 1032.68C563.689 1036.4 567.405 1041.72 570.719 1045.14C573.832 1048.35 579.054 1052.87 582.368 1055.08C585.682 1057.39 592.912 1061.3 598.436 1063.91C603.959 1066.53 622.738 1073.45 640.111 1079.28C669.635 1089.32 671.844 1089.82 673.049 1088.22C673.752 1087.21 675.259 1083.9 676.363 1080.89C677.568 1077.87 680.681 1066.83 683.393 1056.28C686.004 1045.74 689.619 1030.47 691.226 1022.14C692.933 1013.9 694.942 1001.45 695.845 994.522L697.452 981.969C692.33 976.747 686.305 973.031 680.782 970.42C675.259 967.709 665.317 963.491 658.689 960.98C652.061 958.57 642.32 955.357 637.098 954.051C631.876 952.645 623.742 951.239 619.022 950.938C614.302 950.737 608.076 950.838 605.264 951.44C602.352 951.942 597.532 953.248 594.72 954.453V954.453ZM1023.22 141.026C1027.64 140.926 1033.97 141.629 1037.28 142.432C1040.6 143.336 1045.82 145.445 1048.83 147.152C1051.84 148.859 1056.06 151.671 1058.27 153.378C1060.38 155.085 1064.9 159.906 1068.21 164.023C1071.53 168.14 1078.45 177.881 1083.58 185.614C1088.6 193.347 1096.53 206 1101.05 213.732C1105.57 221.465 1113.9 237.332 1119.63 248.881C1125.35 260.53 1131.78 274.488 1133.79 280.012C1137.2 288.749 1137.6 291.159 1137.6 298.59C1137.6 304.917 1137 308.632 1135.39 313.151C1134.19 316.465 1131.68 321.587 1129.87 324.499C1128.16 327.411 1124.55 332.433 1122.04 335.546C1119.53 338.659 1114.31 343.68 1110.49 346.592C1106.67 349.404 1101.05 352.818 1098.04 354.024C1093.52 355.831 1090.41 356.233 1080.97 356.233C1069.52 356.333 1069.22 356.233 1061.89 352.618C1057.17 350.408 1051.54 346.391 1046.92 342.073C1042.8 338.357 1036.68 331.629 1033.26 327.211C1029.85 322.792 1023.93 314.457 1020.01 308.632C1016.19 302.808 1009.16 291.56 1004.44 283.527C999.724 275.493 992.694 263.141 988.778 255.91C984.861 248.78 979.438 237.633 976.727 231.307C974.015 224.98 971.003 217.247 970.199 214.235C969.296 211.222 968.091 205.397 967.488 201.481C966.818 196.594 966.818 192.075 967.488 187.924C967.99 184.409 970.099 178.283 972.208 174.065C974.919 168.442 977.932 164.525 983.957 158.5C989.38 153.177 994.301 149.361 998.619 147.152C1002.23 145.344 1007.46 143.235 1010.17 142.533C1012.98 141.729 1018.8 141.026 1023.22 141.026V141.026ZM1967.19 140.926C1971.61 140.926 1977.94 141.629 1981.25 142.533C1984.57 143.336 1990.39 145.746 1994.31 147.755C1998.22 149.863 2003.95 154.182 2007.56 157.797C2011.08 161.211 2015.6 166.634 2017.71 169.848C2019.81 172.961 2022.33 178.484 2023.33 182.099C2024.74 187.12 2025.04 190.736 2024.63 197.665C2024.33 204.494 2023.23 209.515 2020.32 218.252C2018.21 224.578 2012.79 237.031 2008.37 245.868C2003.85 254.705 1996.62 268.061 1992.3 275.493C1987.98 282.924 1981.05 294.473 1976.83 301.101C1972.62 307.728 1966.59 316.767 1963.28 321.185C1960.06 325.604 1954.84 332.131 1951.73 335.646C1948.62 339.161 1943.59 343.981 1940.58 346.391C1937.57 348.701 1932.35 351.915 1929.03 353.421C1924.51 355.53 1921 356.333 1914.97 356.634C1910.56 356.835 1904.43 356.534 1901.42 355.932C1898.4 355.329 1892.98 353.421 1889.37 351.613C1884.95 349.404 1880.33 345.889 1874.7 340.366C1870.19 335.747 1864.86 329.119 1862.55 325.202C1860.24 321.386 1857.53 315.361 1856.33 311.946C1855.02 308.13 1854.22 303.009 1854.22 299.092C1854.22 294.573 1855.12 289.853 1857.13 283.828C1858.74 278.907 1862.85 268.865 1866.27 261.433C1869.58 254.002 1876.11 241.148 1880.53 232.813C1885.05 224.578 1891.68 212.829 1895.19 206.703C1898.81 200.677 1906.24 188.928 1911.86 180.593C1917.79 171.756 1925.02 162.416 1929.53 157.897C1933.95 153.378 1939.38 149.06 1942.59 147.453C1945.6 145.846 1950.62 143.838 1953.64 142.834C1956.95 141.729 1962.37 141.026 1967.19 140.926V140.926Z" fill="white"/>
</svg>
