<svg width="36" height="42" viewBox="0 0 36 42" fill="none" xmlns="http://www.w3.org/2000/svg">
<path d="M0 37.872C0 39.9941 1.72768 41.7158 3.85714 41.7158H32.1429C34.2723 41.7158 36 39.9941 36 37.872V16.0908H0V37.872ZM25.7143 22.1767C25.7143 21.6482 26.1482 21.2158 26.6786 21.2158H29.8929C30.4232 21.2158 30.8571 21.6482 30.8571 22.1767V25.3799C30.8571 25.9084 30.4232 26.3408 29.8929 26.3408H26.6786C26.1482 26.3408 25.7143 25.9084 25.7143 25.3799V22.1767ZM25.7143 32.4267C25.7143 31.8982 26.1482 31.4658 26.6786 31.4658H29.8929C30.4232 31.4658 30.8571 31.8982 30.8571 32.4267V35.6299C30.8571 36.1584 30.4232 36.5908 29.8929 36.5908H26.6786C26.1482 36.5908 25.7143 36.1584 25.7143 35.6299V32.4267ZM15.4286 22.1767C15.4286 21.6482 15.8625 21.2158 16.3929 21.2158H19.6071C20.1375 21.2158 20.5714 21.6482 20.5714 22.1767V25.3799C20.5714 25.9084 20.1375 26.3408 19.6071 26.3408H16.3929C15.8625 26.3408 15.4286 25.9084 15.4286 25.3799V22.1767ZM15.4286 32.4267C15.4286 31.8982 15.8625 31.4658 16.3929 31.4658H19.6071C20.1375 31.4658 20.5714 31.8982 20.5714 32.4267V35.6299C20.5714 36.1584 20.1375 36.5908 19.6071 36.5908H16.3929C15.8625 36.5908 15.4286 36.1584 15.4286 35.6299V32.4267ZM5.14286 22.1767C5.14286 21.6482 5.57679 21.2158 6.10714 21.2158H9.32143C9.85179 21.2158 10.2857 21.6482 10.2857 22.1767V25.3799C10.2857 25.9084 9.85179 26.3408 9.32143 26.3408H6.10714C5.57679 26.3408 5.14286 25.9084 5.14286 25.3799V22.1767ZM5.14286 32.4267C5.14286 31.8982 5.57679 31.4658 6.10714 31.4658H9.32143C9.85179 31.4658 10.2857 31.8982 10.2857 32.4267V35.6299C10.2857 36.1584 9.85179 36.5908 9.32143 36.5908H6.10714C5.57679 36.5908 5.14286 36.1584 5.14286 35.6299V32.4267ZM32.1429 5.84079H28.2857V1.99704C28.2857 1.29235 27.7071 0.71579 27 0.71579H24.4286C23.7214 0.71579 23.1429 1.29235 23.1429 1.99704V5.84079H12.8571V1.99704C12.8571 1.29235 12.2786 0.71579 11.5714 0.71579H9C8.29286 0.71579 7.71429 1.29235 7.71429 1.99704V5.84079H3.85714C1.72768 5.84079 0 7.56247 0 9.68454V13.5283H36V9.68454C36 7.56247 34.2723 5.84079 32.1429 5.84079Z" fill="white"/>
</svg>
