<svg width="35" height="36" viewBox="0 0 35 36" fill="none" xmlns="http://www.w3.org/2000/svg">
<path fill-rule="evenodd" clip-rule="evenodd" d="M13.5051 1.25711C13.6739 1.25711 13.9403 1.49746 17.5 5.05081L19.4098 3.14746C20.9233 1.65337 21.3585 1.25061 21.4884 1.25061C21.5859 1.25061 24.1972 2.62778 27.7115 4.53112C31.0438 6.33703 33.8241 7.88309 33.889 7.96104C33.954 8.039 34.0059 8.17541 33.9995 8.26636C33.9995 8.38978 33.5447 8.88348 30.1994 12.229L30.6866 12.7357C30.9529 13.0085 31.8104 13.879 32.5834 14.665C33.4733 15.5679 33.9995 16.1396 33.9995 16.224C33.9995 16.2955 33.9605 16.4254 33.915 16.5099C33.863 16.6073 33.2199 16.9906 30.0695 18.699L30.037 23.1813C30.0175 25.6433 29.9785 27.7026 29.9525 27.7545C29.9266 27.8065 29.8291 27.8975 29.7317 27.9559C29.6277 28.0144 26.867 29.515 23.5931 31.2884C20.3127 33.0618 17.5715 34.5105 17.5 34.5105C17.4285 34.5105 14.6158 33.0229 11.251 31.1975C7.87965 29.3786 5.09943 27.8325 5.06045 27.774C5.02148 27.7026 4.9825 25.9032 4.93054 18.6925L3.04674 17.6792C1.76706 16.9841 1.13696 16.6138 1.085 16.5099C1.03952 16.4254 1.00055 16.2955 1.00055 16.224C1.00055 16.1396 1.52671 15.5679 2.41664 14.665C3.18965 13.879 4.0471 13.0085 4.80062 12.229L2.90383 10.3321C1.45526 8.88348 1.00055 8.38978 1.00055 8.26636C0.994054 8.17541 1.04602 8.039 1.11098 7.96104C1.17594 7.88309 2.58554 7.08407 4.24847 6.18112C5.91141 5.27817 7.41845 4.47915 7.59383 4.3947C7.78221 4.31026 7.97059 4.27128 8.04205 4.29077C8.1135 4.31675 8.22393 4.4077 8.28889 4.49864C8.35385 4.58959 8.41231 4.71301 8.40582 4.77797C8.40582 4.83644 8.34086 4.95986 8.26291 5.04431C8.17846 5.13526 6.80134 5.91478 2.28673 8.3638L5.58012 11.6508L10.6469 8.91596C13.4336 7.40888 15.9345 6.0577 16.688 5.65494L13.3751 2.36144L13.0179 2.54982C12.823 2.64726 12.0305 3.076 11.264 3.49175C10.4975 3.9075 9.79593 4.26478 9.70498 4.28427C9.61404 4.30376 9.47763 4.28427 9.39968 4.2453C9.31523 4.20632 9.22429 4.10238 9.18532 4.01144C9.13985 3.9075 9.13985 3.78407 9.18532 3.67364C9.23728 3.52423 9.51011 3.34884 10.7248 2.68624C11.5368 2.23801 12.4527 1.73782 12.758 1.56892C13.0633 1.39352 13.3946 1.25711 13.5051 1.25711ZM18.312 5.65494C19.0655 6.0577 21.5664 7.40888 24.3531 8.91596L29.4199 11.6508L32.7068 8.3638C24.3206 3.81656 21.8197 2.47187 21.7483 2.43289C21.6184 2.36793 21.4495 2.51734 19.9619 4.00494L18.312 5.65494ZM6.54151 12.2549C6.52851 12.2614 8.99694 13.6061 12.011 15.2366L17.5 18.2118C25.9836 13.6191 28.452 12.2809 28.4585 12.2809C28.465 12.2744 26.0031 10.9297 22.989 9.29274C19.9684 7.66222 17.4935 6.32404 17.4805 6.32404C17.474 6.33053 15.0121 7.66222 12.011 9.28624C9.00993 10.9103 6.548 12.2484 6.54151 12.2549ZM2.29322 16.1656L13.3751 22.1744C15.915 19.628 16.6296 18.8744 16.6036 18.8484C16.5776 18.8225 14.0962 17.4713 11.0821 15.8408C8.07453 14.2168 5.59961 12.8851 5.59311 12.8851C5.58662 12.8851 4.83959 13.6191 3.93667 14.5221L2.29322 16.1656ZM18.3899 18.8484C18.3639 18.8744 19.0785 19.6345 19.9814 20.5374L21.6184 22.1744C24.4181 20.6673 25.295 20.2256 25.373 20.2256C25.4509 20.2256 25.5873 20.2776 25.6718 20.336C25.7757 20.414 25.8298 20.5244 25.8342 20.6673C25.8407 20.8103 25.7952 20.9207 25.6783 21.0311C25.5938 21.1156 24.6389 21.6612 23.5671 22.2394C21.8912 23.1423 21.5924 23.2853 21.4235 23.2528C21.2871 23.2203 20.7804 22.7591 19.6241 21.6028L18.0132 19.9982C18.0132 31.8081 18.0327 33.1528 18.0976 33.1333C18.1431 33.1203 20.6115 31.7951 23.5866 30.1906L28.9976 27.2738C29.0171 21.1091 29.0041 19.3162 28.9782 19.3162C28.9522 19.3162 28.5559 19.524 28.1012 19.7709C27.5621 20.0632 27.1983 20.2256 27.0619 20.2256C26.906 20.2256 26.815 20.1801 26.7176 20.0502C26.6462 19.9528 26.5877 19.8164 26.5877 19.7579C26.5877 19.6929 26.6721 19.563 26.7696 19.4656C26.867 19.3616 28.2441 18.5821 29.8226 17.7246L32.7003 16.1656C30.1539 13.6256 29.4004 12.8916 29.3809 12.8916C29.3679 12.8916 26.893 14.2232 23.8919 15.8538C20.8908 17.4778 18.4159 18.829 18.3899 18.8484ZM5.99586 27.2738C14.4534 31.8341 16.9219 33.1463 16.9349 33.1398C16.9479 33.1268 16.9673 32.8605 16.9803 32.5357C16.9868 32.2173 16.9933 29.2616 16.9868 25.9746L16.9803 19.9982C14.4664 22.4992 13.6869 23.2268 13.596 23.2528C13.4856 23.2788 13.3297 23.2398 13.1088 23.1293C12.9334 23.0449 11.277 22.1484 9.42566 21.1416C7.57435 20.1412 6.04133 19.3162 6.01534 19.3162C5.98936 19.3162 5.97637 21.1091 5.98286 23.2982L5.99586 27.2738Z" fill="white" stroke="white"/>
</svg>
