<svg width="531" height="531" viewBox="0 0 531 531" fill="none" xmlns="http://www.w3.org/2000/svg">
<path d="M6.83191 6.01634C8.38792 4.46039 11.3962 2.48952 13.3672 1.65968C16.5829 0.31119 38.782 0.10373 382.142 0L386.81 2.38579C389.403 3.73428 392.826 6.74245 397.702 13.6924L397.909 87.2369C398.22 157.358 398.117 160.989 396.25 164.723C395.212 166.798 392.723 170.014 390.855 171.777C388.884 173.437 385.461 175.511 383.179 176.237C380.482 177.171 376.955 177.378 373.324 176.963C369.797 176.652 366.167 175.407 363.677 173.748C361.602 172.296 358.594 169.184 354.133 162.441L353.615 44.6039L176.748 44.7076L215.234 56.3254C241.893 64.4163 254.756 68.773 257.246 70.6401C259.217 72.0924 261.81 75.308 265.441 82.4654V441.89H353.615L353.511 327.268L356.519 321.563C358.698 317.31 360.772 315.028 364.507 312.746C368.656 310.153 370.627 309.634 375.814 309.634C380.171 309.738 383.386 310.36 386.291 311.916C388.573 313.161 391.478 315.236 392.723 316.584C393.967 317.829 395.731 320.733 396.561 322.808C398.013 326.231 398.22 335.878 398.22 398.323C398.22 460.769 398.013 470.416 396.561 473.839C395.731 475.913 393.967 478.818 392.723 480.063C391.478 481.411 388.573 483.589 386.291 484.73C382.253 487.008 381.315 487.012 266.08 487.528L265.441 487.531V501.327C265.441 513.671 265.233 515.435 263.055 519.687C261.706 522.281 258.698 525.704 256.209 527.467C252.785 529.853 250.296 530.683 245.939 530.994C241.375 531.201 214.3 526.119 127.475 508.796C45.9396 492.51 13.7821 485.664 10.7738 484.108C8.59539 482.863 5.2759 479.751 0.400397 472.801L0.0891953 244.699C-0.118273 21.9908 -0.118273 16.4931 1.85267 12.6551C2.99375 10.5805 5.17216 7.57229 6.83191 6.01634Z" fill="white"/>
<path d="M426.747 161.3C429.341 158.707 432.971 156.217 434.839 155.699H434.735C436.602 155.18 440.129 154.661 442.515 154.661C445.005 154.558 448.739 155.284 450.814 156.114C453.511 157.255 466.166 169.184 490.855 193.768C510.772 213.58 527.888 231.525 529.029 233.704C530.274 236.193 531 239.616 531 243.558C531 247.292 530.274 251.027 528.925 253.62C527.681 256.213 513.573 271.047 491.374 293.245C467.204 317.414 454.548 329.239 451.851 330.38C449.776 331.21 445.419 331.936 442.307 331.936C438.78 331.936 435.15 331.21 432.66 329.965C430.585 328.824 427.577 326.646 426.021 324.986C424.465 323.43 422.494 320.318 421.664 318.244C420.731 316.065 420.005 312.539 420.005 310.464C420.005 308.286 420.523 304.655 421.146 302.373C422.079 299.054 425.71 294.801 454.755 265.549H390.648C335.046 265.549 326.125 265.341 322.702 263.889C320.627 263.059 317.723 261.296 316.478 260.051C315.129 258.806 313.055 255.902 311.81 253.62C310.254 250.715 309.632 247.5 309.528 243.143C309.528 237.957 310.047 235.986 312.64 231.837C314.922 228.102 317.204 226.028 327.163 220.841L454.755 220.945L438.988 205.178C429.133 195.22 422.598 187.855 421.561 185.469C420.731 183.291 420.005 179.764 420.005 177.69C420.005 175.511 420.523 171.984 421.042 169.91C421.664 167.524 423.946 164.101 426.747 161.3Z" fill="white"/>
</svg>
