<svg width="30" height="40" viewBox="0 0 30 40" fill="none" xmlns="http://www.w3.org/2000/svg">
<path d="M2.65197 0.107304C2.00814 0.268265 1.52526 0.544189 1.03473 1.03473C0.536525 1.53293 0.229939 2.07712 0.0919757 2.74394C-0.0306586 3.32645 -0.0306586 35.9242 0.0919757 36.499C0.375568 37.8174 1.43329 38.8751 2.75161 39.1587C3.32646 39.2813 26.5733 39.2813 27.1558 39.1587C28.4588 38.8827 29.5395 37.7944 29.8155 36.499C29.8768 36.2078 29.8998 32.5058 29.8998 23.7987V11.497H25.7225C22.902 11.497 21.4227 11.4663 21.1468 11.4127C19.8361 11.1291 18.7707 10.0637 18.4871 8.75302C18.4335 8.4771 18.4028 6.99782 18.4028 4.17723V0L10.7228 0.00766373C4.84406 0.0153313 2.94322 0.0383224 2.65197 0.107304ZM22.3884 16.3257C22.7333 16.502 23.0016 16.9389 23.0016 17.3221C23.0016 17.7053 22.7333 18.1422 22.3884 18.3185C22.0972 18.4718 21.9515 18.4718 14.9461 18.4718H7.81027L7.50369 18.3032C6.72956 17.8663 6.72189 16.8162 7.48836 16.3563L7.78728 16.1724H14.9384C21.9515 16.1724 22.0972 16.1724 22.3884 16.3257ZM22.3884 20.9245C22.7333 21.1008 23.0016 21.5376 23.0016 21.9209C23.0016 22.3041 22.7333 22.741 22.3884 22.9173C22.0972 23.0706 21.9515 23.0706 14.9461 23.0706H7.81027L7.50369 22.902C6.72956 22.4651 6.72189 21.415 7.48836 20.9551L7.78728 20.7712H14.9384C21.9515 20.7712 22.0972 20.7712 22.3884 20.9245ZM22.3884 25.5233C22.7333 25.6996 23.0016 26.1364 23.0016 26.5197C23.0016 26.9029 22.7333 27.3398 22.3884 27.5161C22.0972 27.6694 21.9515 27.6694 14.9461 27.6694H7.81027L7.50369 27.5007C6.72956 27.0639 6.72189 26.0138 7.48836 25.5539L7.78728 25.37H14.9384C21.9515 25.37 22.0972 25.37 22.3884 25.5233ZM17.7896 30.1221C18.1345 30.2983 18.4028 30.7352 18.4028 31.1185C18.4028 31.5017 18.1345 31.9386 17.7896 32.1149C17.4984 32.2605 17.3451 32.2682 12.6467 32.2682H7.81027L7.50369 32.0995C6.72956 31.6626 6.72189 30.6126 7.48836 30.1527L7.78728 29.9688H12.639C17.3528 29.9688 17.4984 29.9764 17.7896 30.1221Z" fill="white"/>
<path d="M20.7021 4.46848C20.7021 8.0632 20.7098 8.30081 20.8478 8.56907C20.9321 8.73769 21.116 8.92164 21.3 9.02895L21.6066 9.19757L25.4082 9.18224L29.2099 9.15925L24.956 4.90537L20.7021 0.651492V4.46848Z" fill="white"/>
</svg>
