<svg width="35" height="25" viewBox="0 0 35 25" fill="none" xmlns="http://www.w3.org/2000/svg">
<path d="M5.25 10.7857C7.18047 10.7857 8.75 9.24821 8.75 7.35714C8.75 5.46607 7.18047 3.92857 5.25 3.92857C3.31953 3.92857 1.75 5.46607 1.75 7.35714C1.75 9.24821 3.31953 10.7857 5.25 10.7857ZM29.75 10.7857C31.6805 10.7857 33.25 9.24821 33.25 7.35714C33.25 5.46607 31.6805 3.92857 29.75 3.92857C27.8195 3.92857 26.25 5.46607 26.25 7.35714C26.25 9.24821 27.8195 10.7857 29.75 10.7857ZM31.5 12.5H28C27.0375 12.5 26.168 12.8804 25.5336 13.4964C27.7375 14.6804 29.3016 16.8179 29.6406 19.3571H33.25C34.218 19.3571 35 18.5911 35 17.6429V15.9286C35 14.0375 33.4305 12.5 31.5 12.5ZM17.5 12.5C20.8852 12.5 23.625 9.81607 23.625 6.5C23.625 3.18393 20.8852 0.5 17.5 0.5C14.1148 0.5 11.375 3.18393 11.375 6.5C11.375 9.81607 14.1148 12.5 17.5 12.5ZM21.7 14.2143H21.2461C20.1086 14.75 18.8453 15.0714 17.5 15.0714C16.1547 15.0714 14.8969 14.75 13.7539 14.2143H13.3C9.82188 14.2143 7 16.9786 7 20.3857V21.9286C7 23.3482 8.17578 24.5 9.625 24.5H25.375C26.8242 24.5 28 23.3482 28 21.9286V20.3857C28 16.9786 25.1781 14.2143 21.7 14.2143ZM9.46641 13.4964C8.83203 12.8804 7.9625 12.5 7 12.5H3.5C1.56953 12.5 0 14.0375 0 15.9286V17.6429C0 18.5911 0.782031 19.3571 1.75 19.3571H5.35391C5.69844 16.8179 7.2625 14.6804 9.46641 13.4964Z" fill="white"/>
</svg>
