<svg width="512" height="513" viewBox="0 0 512 513" fill="none" xmlns="http://www.w3.org/2000/svg">
<path d="M241 6.36755C244.6 4.66727 250 2.56692 253 1.76679C256.5 0.766627 263.8 0.266545 273.2 0.266545C286.7 0.166528 289 0.466578 299.2 3.26704C305.4 4.8673 330.7 12.0685 355.5 19.1696C380.2 26.2708 417.4 36.7725 438 42.6735C458.6 48.4745 478.2 54.4754 481.5 56.0757C484.8 57.676 490.2 61.3766 493.4 64.3771C496.7 67.2775 501.1 72.3784 503.2 75.6789C505.4 78.9795 508.2 85.1805 509.5 89.4812C511.3 94.9821 512 99.4828 512 105.184C512 110.885 511.3 115.385 509.5 120.986C508.2 125.187 505.4 131.388 503.2 134.689C501.1 137.989 496.9 142.99 493.9 145.69C490.8 148.491 486.1 151.891 483.4 153.392C480.4 155.092 444.7 165.794 389.5 181.496C340.5 195.499 296.9 207.801 292.5 208.701C286.1 210.101 281.5 210.401 269.5 210.001C256.9 209.601 253.5 209.101 248 207.101C244.4 205.8 239.1 203.1 236.1 201.2C233.1 199.299 228.3 195.099 225.3 191.998C222.3 188.697 218.5 183.097 216.6 178.996C214.7 174.995 212.7 168.994 212.1 165.694C211.5 162.393 211 150.791 211 120.186H181V135.189H0V75.1788H181V90.1813H211V70.4781C211 59.5763 211.5 47.9744 212.1 44.6738C212.7 41.3733 214.8 35.2723 216.7 31.1716C219.3 25.6707 222.2 21.7701 227.4 16.5692C232.1 11.8685 236.7 8.46789 241 6.36755Z" fill="white"/>
<path d="M0 361.226V300.716V240.206H121V361.226H0Z" fill="white"/>
<path d="M391 361.226V300.716V240.206H512V361.226H391Z" fill="white"/>
<path d="M0 512.251V451.741V391.231H241V512.251H0Z" fill="white"/>
<path d="M271 512.251V451.741V391.231H512V512.251H271Z" fill="white"/>
<path d="M151 361.226V300.716V240.206H361V361.226H151Z" fill="white"/>
</svg>
